# xmcd
#
# Track frame offsets:
#	150
#	10550
#	27151
#	36589
#	53098
#	64568
#	76551
#	90530
#	103430
#	120957
#
# Disc length: 1775 seconds
#
# Revision: 1
# Processed by: cddbd v1.5.2PL0 Copyright (c) Steve Scherf et al.
# Submitted via: audiograbber 1.83.01
#
DISCID=6c06ed0a
DTITLE=Jimmy Ellis - Instrumentals
DYEAR=2015
DGENRE=Country
TTITLE0=Flatt Did It
TTITLE1=Kentucky Waltz
TTITLE2=Whiskey Before Breakfast
TTITLE3=Faded Love
TTITLE4=Grandmother's Waltz
TTITLE5=Cruising Highway #7
TTITLE6=Tennessee Waltz
TTITLE7=Smokey's Rag
TTITLE8=Spinning Wheel
TTITLE9=Amazing Grace
EXTD=
EXTT0=
EXTT1=
EXTT2=
EXTT3=
EXTT4=
EXTT5=
EXTT6=
EXTT7=
EXTT8=
EXTT9=
PLAYORDER=
